<svg xmlns="http://www.w3.org/2000/svg" viewBox="0 0 24 24" aria-label="Spotify">
  <circle cx="12" cy="12" r="12" fill="#1ED760"/>
  <path fill="#000000" d="M17.9 17.18a.6.6 0 0 1-.82.2 12.5 12.5 0 0 0-4.62-1.48 12.5 12.5 0 0 0-4.85.21.6.6 0 1 1-.27-1.17c1.74-.4 3.53-.48 5.32-.23 1.79.25 3.49.83 5.04 1.71a.6.6 0 0 1 .2.76zm1.33-2.64a.75.75 0 0 1-1.03.25 15.3 15.3 0 0 0-5.34-1.72 15.3 15.3 0 0 0-5.6.18.75.75 0 1 1-.33-1.46c1.96-.44 3.97-.5 5.96-.18a16.8 16.8 0 0 1 5.91 1.92c.36.21.48.67.43 1.01zm1.47-2.96a.9.9 0 0 1-1.24.3 18.7 18.7 0 0 0-6.15-1.92 18.7 18.7 0 0 0-6.47.13.9.9 0 0 1-.37-1.76 20.5 20.5 0 0 1 7.13-.18 20.5 20.5 0 0 1 6.79 2.11c.45.24.6.83.31 1.32z"/>
</svg>
